<svg width="523" height="525" viewBox="0 0 523 525" fill="none" xmlns="http://www.w3.org/2000/svg">
    <path d="M50.2948 442.267L45.6886 424.085C37.5217 420.621 29.1662 417.621 20.6617 415.099L20.0803 423.548L17.7224 414.239C7.17533 411.222 0 409.894 0 409.894C0 409.894 9.68975 446.78 30.02 474.98L53.7066 479.144L35.3051 481.8C37.8625 484.879 40.6107 487.795 43.5337 490.529C73.105 518.001 106.043 530.605 117.101 518.681C128.159 506.757 113.151 474.822 83.5798 447.353C74.4125 438.836 62.8964 432.002 51.3684 426.622L50.2948 442.267Z" fill="#DCDADB"/>
    <path d="M94.0995 422.518L99.5468 404.572C94.3452 397.381 88.7424 390.49 82.7653 383.932L77.9036 390.864L80.6925 381.675C73.2209 373.638 67.7644 368.79 67.7644 368.79C67.7644 368.79 57.0109 405.38 59.8476 440.037L77.9738 455.855L60.8468 448.609C61.4461 452.569 62.2936 456.487 63.3844 460.34C74.5107 499.155 96.1968 526.985 111.821 522.498C127.446 518.012 131.093 482.909 119.966 444.094C116.517 432.061 110.188 420.253 103.098 409.685L94.0995 422.518Z" fill="#DCDADB"/>
    <path d="M364.947 124.373H362.073V45.5958C362.073 39.6081 360.895 33.679 358.606 28.147C356.316 22.6151 352.96 17.5887 348.73 13.3547C344.499 9.12074 339.477 5.76217 333.95 3.47077C328.422 1.17937 322.498 0 316.515 0H149.748C137.666 0 126.078 4.80383 117.534 13.3547C108.99 21.9056 104.19 33.503 104.19 45.5958V477.78C104.19 483.768 105.369 489.697 107.658 495.229C109.948 500.761 113.303 505.787 117.534 510.021C121.764 514.255 126.787 517.614 132.314 519.905C137.841 522.197 143.766 523.376 149.748 523.376H316.515C328.598 523.376 340.186 518.572 348.729 510.021C357.273 501.47 362.073 489.873 362.073 477.78V180.448H364.946L364.947 124.373Z" fill="#585657"/>
    <path d="M318.354 11.858H296.587C297.588 14.3145 297.97 16.9797 297.699 19.6188C297.429 22.2579 296.514 24.79 295.035 26.9918C293.557 29.1936 291.559 30.9977 289.22 32.2451C286.881 33.4924 284.27 34.1448 281.62 34.1447H186.081C183.43 34.1446 180.82 33.492 178.481 32.2446C176.141 30.9971 174.145 29.193 172.666 26.9912C171.187 24.7894 170.273 22.2575 170.002 19.6185C169.732 16.9795 170.114 14.3144 171.115 11.858H150.783C141.76 11.858 133.106 15.4455 126.726 21.8312C120.345 28.2169 116.761 36.8778 116.761 45.9085V477.465C116.761 486.496 120.345 495.157 126.726 501.543C133.106 507.928 141.76 511.516 150.783 511.516H318.354C327.377 511.516 336.031 507.928 342.411 501.543C348.791 495.157 352.376 486.496 352.376 477.465V45.9078C352.376 36.8772 348.791 28.2165 342.411 21.8309C336.03 15.4454 327.377 11.858 318.354 11.858Z" fill="white"/>
    <path d="M213.216 183.768C213.215 180.752 214.008 177.788 215.516 175.176C217.023 172.564 219.192 170.395 221.803 168.889C219.193 167.38 216.233 166.586 213.219 166.585C210.205 166.585 207.244 167.379 204.634 168.887C202.024 170.395 199.856 172.564 198.349 175.176C196.842 177.788 196.049 180.751 196.049 183.767C196.049 186.784 196.842 189.747 198.349 192.359C199.856 194.971 202.024 197.14 204.634 198.648C207.244 200.156 210.205 200.95 213.219 200.949C216.233 200.949 219.193 200.155 221.803 198.646C219.192 197.14 217.024 194.971 215.516 192.359C214.009 189.748 213.215 186.785 213.216 183.768Z" fill="#DCDADB"/>
    <path d="M234.798 183.768C234.797 180.752 235.59 177.788 237.098 175.176C238.605 172.564 240.774 170.395 243.385 168.889C240.775 167.38 237.815 166.586 234.801 166.585C231.787 166.585 228.826 167.379 226.216 168.887C223.606 170.395 221.439 172.564 219.932 175.176C218.425 177.788 217.631 180.751 217.631 183.767C217.631 186.784 218.425 189.747 219.932 192.359C221.439 194.971 223.606 197.14 226.216 198.648C228.826 200.156 231.787 200.95 234.801 200.949C237.815 200.949 240.775 200.155 243.385 198.646C240.774 197.14 238.606 194.971 237.098 192.359C235.591 189.748 234.797 186.785 234.798 183.768Z" fill="#DCDADB"/>
    <path d="M255.89 200.95C265.371 200.95 273.057 193.257 273.057 183.768C273.057 174.278 265.371 166.586 255.89 166.586C246.408 166.586 238.722 174.278 238.722 183.768C238.722 193.257 246.408 200.95 255.89 200.95Z" fill="#F6298F"/>
    <path d="M284.581 237.434H184.524C183.571 237.433 182.658 237.053 181.985 236.379C181.311 235.705 180.932 234.791 180.931 233.838V133.697C180.932 132.744 181.311 131.83 181.985 131.156C182.658 130.482 183.571 130.103 184.524 130.102H284.581C285.534 130.103 286.447 130.482 287.121 131.156C287.794 131.83 288.173 132.744 288.174 133.697V233.838C288.173 234.791 287.794 235.705 287.121 236.379C286.447 237.053 285.534 237.433 284.581 237.434ZM184.524 131.541C183.952 131.541 183.404 131.769 183 132.173C182.596 132.578 182.369 133.126 182.368 133.698V233.838C182.369 234.41 182.596 234.959 183 235.363C183.404 235.768 183.952 235.995 184.524 235.996H284.581C285.153 235.995 285.701 235.768 286.105 235.363C286.509 234.959 286.736 234.41 286.737 233.838V133.698C286.736 133.126 286.509 132.578 286.105 132.173C285.701 131.769 285.153 131.541 284.581 131.541H184.524Z" fill="#CCCCCC"/>
    <path d="M306.923 314.196H153.465V315.634H306.923V314.196Z" fill="#CCCCCC"/>
    <path d="M158.311 305.215C160.988 305.215 163.157 303.043 163.157 300.365C163.157 297.686 160.988 295.514 158.311 295.514C155.635 295.514 153.465 297.686 153.465 300.365C153.465 303.043 155.635 305.215 158.311 305.215Z" fill="#F6298F"/>
    <path d="M306.923 362.696H153.465V364.135H306.923V362.696Z" fill="#CCCCCC"/>
    <path d="M158.311 353.716C160.988 353.716 163.157 351.544 163.157 348.866C163.157 346.187 160.988 344.015 158.311 344.015C155.635 344.015 153.465 346.187 153.465 348.866C153.465 351.544 155.635 353.716 158.311 353.716Z" fill="#F6298F"/>
    <path d="M304.114 417.926H255.617C254.78 417.925 253.977 417.592 253.384 416.999C252.792 416.406 252.459 415.602 252.458 414.764V397.752C252.459 396.913 252.792 396.11 253.384 395.517C253.977 394.924 254.78 394.59 255.617 394.589H304.114C304.952 394.59 305.755 394.924 306.347 395.517C306.94 396.11 307.273 396.913 307.274 397.752V414.764C307.273 415.602 306.94 416.406 306.347 416.999C305.755 417.592 304.952 417.925 304.114 417.926Z" fill="#F6298F"/>
    <path d="M174.119 305.215C176.796 305.215 178.966 303.043 178.966 300.365C178.966 297.686 176.796 295.514 174.119 295.514C171.443 295.514 169.273 297.686 169.273 300.365C169.273 303.043 171.443 305.215 174.119 305.215Z" fill="#F6298F"/>
    <path d="M189.928 305.215C192.604 305.215 194.774 303.043 194.774 300.365C194.774 297.686 192.604 295.514 189.928 295.514C187.251 295.514 185.081 297.686 185.081 300.365C185.081 303.043 187.251 305.215 189.928 305.215Z" fill="#F6298F"/>
    <path d="M174.119 353.716C176.796 353.716 178.966 351.544 178.966 348.866C178.966 346.187 176.796 344.015 174.119 344.015C171.443 344.015 169.273 346.187 169.273 348.866C169.273 351.544 171.443 353.716 174.119 353.716Z" fill="#F6298F"/>
    <path d="M189.928 353.716C192.604 353.716 194.774 351.544 194.774 348.866C194.774 346.187 192.604 344.015 189.928 344.015C187.251 344.015 185.081 346.187 185.081 348.866C185.081 351.544 187.251 353.716 189.928 353.716Z" fill="#F6298F"/>
    <path d="M396.491 343.964C396.836 344.121 397.167 344.306 397.482 344.517L428.975 331.064L430.099 322.761L442.683 322.684L441.94 341.727L400.372 352.729C400.285 353.018 400.18 353.302 400.058 353.578C399.457 354.862 398.491 355.939 397.28 356.674C396.069 357.41 394.669 357.771 393.254 357.712C391.839 357.654 390.472 357.178 389.327 356.345C388.181 355.511 387.307 354.358 386.814 353.029C386.321 351.701 386.231 350.256 386.556 348.876C386.881 347.496 387.606 346.244 388.64 345.275C389.674 344.307 390.971 343.665 392.368 343.432C393.765 343.199 395.199 343.384 396.491 343.964Z" fill="#FFB8B8"/>
    <path d="M447.26 516.528H438.651L434.556 483.297L447.261 483.297L447.26 516.528Z" fill="#FFB8B8"/>
    <path d="M432.502 514.066H449.104V524.527H422.05C422.05 521.753 423.151 519.092 425.111 517.13C427.071 515.168 429.73 514.066 432.502 514.066Z" fill="#585657"/>
    <path d="M480.739 514.093L472.172 514.938L464.84 482.269L477.484 481.023L480.739 514.093Z" fill="#FFB8B8"/>
    <path d="M465.812 513.091L482.333 511.463L483.358 521.874L456.434 524.528C456.299 523.161 456.435 521.781 456.833 520.466C457.232 519.151 457.885 517.928 458.756 516.866C459.627 515.804 460.698 514.924 461.909 514.276C463.119 513.629 464.446 513.226 465.812 513.091Z" fill="#585657"/>
    <path d="M449.656 287.515C459.18 287.515 466.902 279.787 466.902 270.255C466.902 260.722 459.18 252.995 449.656 252.995C440.131 252.995 432.41 260.722 432.41 270.255C432.41 279.787 440.131 287.515 449.656 287.515Z" fill="#FFB8B8"/>
    <path d="M436.728 509.807C435.988 509.809 435.271 509.55 434.704 509.074C434.137 508.599 433.756 507.938 433.628 507.209C429.172 482.455 414.608 401.514 414.259 399.272C414.252 399.22 414.248 399.168 414.248 399.116V393.081C414.248 392.861 414.316 392.647 414.445 392.468L416.369 389.771C416.46 389.641 416.58 389.534 416.719 389.458C416.858 389.382 417.013 389.339 417.172 389.332C428.141 388.817 464.065 387.309 465.8 389.479C467.543 391.66 466.927 398.268 466.786 399.57L466.793 399.706L482.932 503.005C483.059 503.829 482.856 504.67 482.368 505.345C481.879 506.02 481.145 506.476 480.324 506.614L470.243 508.276C469.493 508.396 468.724 508.243 468.076 507.845C467.428 507.446 466.945 506.827 466.715 506.102C463.597 496.132 453.143 462.59 449.519 449.611C449.497 449.529 449.445 449.458 449.374 449.411C449.303 449.365 449.217 449.345 449.132 449.357C449.048 449.369 448.971 449.411 448.916 449.476C448.86 449.541 448.83 449.624 448.831 449.709C449.012 462.081 449.45 493.647 449.6 504.549L449.617 505.723C449.624 506.518 449.332 507.286 448.8 507.877C448.268 508.467 447.534 508.836 446.743 508.911L437.023 509.794C436.924 509.803 436.825 509.807 436.728 509.807Z" fill="#585657"/>
    <path d="M438.711 294.302C435.701 296.092 433.9 299.383 432.867 302.731C430.954 308.93 429.802 315.339 429.437 321.817L428.345 341.213L414.825 392.632C426.543 402.555 433.303 400.3 449.077 392.183C464.851 384.066 466.653 394.89 466.653 394.89L469.808 351.138L474.314 303.329C473.303 302.11 472.158 301.008 470.901 300.045C466.735 296.803 461.889 294.549 456.726 293.454C451.564 292.359 446.221 292.451 441.1 293.723L438.711 294.302Z" fill="#F6298F"/>
    <path d="M434.319 354.348C434.683 354.485 435.035 354.651 435.373 354.843L466.513 339.244L467.029 330.793L479.875 329.907L480.563 349.171L438.949 362.944C438.609 364.403 437.834 365.723 436.726 366.73C435.618 367.737 434.23 368.382 432.747 368.58C431.263 368.778 429.755 368.52 428.422 367.839C427.089 367.158 425.995 366.087 425.285 364.769C424.574 363.451 424.282 361.947 424.447 360.458C424.611 358.97 425.225 357.567 426.206 356.435C427.186 355.304 428.488 354.498 429.937 354.126C431.387 353.753 432.915 353.831 434.319 354.348Z" fill="#FFB8B8"/>
    <path d="M474.089 303.548C481.75 306.254 483.1 335.574 483.1 335.574C474.087 330.613 463.27 338.732 463.27 338.732C463.27 338.732 461.017 331.064 458.313 321.141C457.496 318.35 457.399 315.397 458.029 312.558C458.659 309.719 459.997 307.086 461.918 304.903C461.918 304.903 466.427 300.84 474.089 303.548Z" fill="#F6298F"/>
    <path d="M465.119 274.819C462.971 273.099 460.039 276.226 460.039 276.226L458.32 260.742C458.32 260.742 447.576 262.03 440.7 260.313C433.824 258.595 432.75 266.549 432.75 266.549C432.396 263.336 432.324 260.098 432.535 256.872C432.965 253.001 438.552 249.13 448.436 246.549C458.32 243.968 463.477 255.151 463.477 255.151C470.353 258.592 467.268 276.54 465.119 274.819Z" fill="#585657"/>
</svg>
