<svg width="83" height="83" viewBox="0 0 83 83" fill="none" xmlns="http://www.w3.org/2000/svg">
    <g clip-path="url(#clip0_141_102)">
        <path d="M0 41.5C0 18.5802 18.5802 0 41.5 0C64.4198 0 83 18.5802 83 41.5C83 64.4198 64.4198 83 41.5 83C18.5802 83 0 64.4198 0 41.5Z" fill="white"/>
        <path fill-rule="evenodd" clip-rule="evenodd" d="M41.8577 3.57758C20.7162 3.57758 3.57758 20.7162 3.57758 41.8577C3.57758 62.9993 20.7162 80.1379 41.8577 80.1379C48.7565 80.1379 55.2291 78.313 60.819 75.1196C60.6268 74.2269 60.3656 73.834 59.6041 73.3405C54.3624 76.3016 48.3074 77.9914 41.8577 77.9914C21.9017 77.9914 5.72413 61.8138 5.72413 41.8577C5.72413 21.9017 21.9017 5.72413 41.8577 5.72413C47.4822 5.72413 52.8065 7.00919 57.5531 9.30171C58.5334 8.86608 58.7904 8.46846 58.6724 7.45862C53.5969 4.97298 47.8903 3.57758 41.8577 3.57758Z" fill="#F6298F"/>
        <path fill-rule="evenodd" clip-rule="evenodd" d="M65.9059 16.829C52.2646 3.18777 30.2199 3.11556 16.6677 16.6678C3.11554 30.22 3.18775 52.2646 16.829 65.9059C21.2803 70.3572 26.6265 73.3637 32.2803 74.9234C32.7286 74.2272 32.8119 73.8069 32.6369 72.9992C27.3567 71.5151 22.3666 68.6915 18.205 64.5299C5.32867 51.6536 5.26051 30.8451 18.0528 18.0528C30.845 5.26053 51.6536 5.32869 64.5299 18.205C68.159 21.8341 70.7707 26.0933 72.3637 30.6255C73.2755 30.9788 73.6962 30.8897 74.2674 30.1663C72.5859 25.298 69.7983 20.7214 65.9059 16.829Z" fill="#F6298F" fill-opacity="0.3"/>
        <path fill-rule="evenodd" clip-rule="evenodd" d="M72.2672 41.1199C72.2672 23.9423 58.4923 10.0172 41.5 10.0172C24.5077 10.0172 10.7328 23.9423 10.7328 41.1198C10.7328 46.7251 12.1995 51.984 14.7662 56.5258C15.4837 56.3697 15.7995 56.1575 16.1961 55.5388C13.8162 51.2799 12.458 46.3602 12.458 41.1198C12.458 24.9056 25.4606 11.7613 41.5 11.7613C57.5394 11.7613 70.542 24.9056 70.542 41.1199C70.542 45.6897 69.5091 50.0157 67.6665 53.8723C68.0167 54.6688 68.3362 54.8776 69.1479 54.7818C71.1457 50.6579 72.2672 46.0213 72.2672 41.1199Z" fill="#C42072"/>
        <path fill-rule="evenodd" clip-rule="evenodd" d="M60.718 61.3579C71.5976 50.4784 71.7323 32.9738 61.0189 22.2604C50.3055 11.547 32.8009 11.6817 21.9213 22.5613C18.3712 26.1114 15.9652 30.367 14.7068 34.8619C15.2581 35.2153 15.5916 35.2801 16.2335 35.1382C17.4304 30.9403 19.6901 26.9681 23.0091 23.649C33.2786 13.3795 49.8016 13.2524 59.9142 23.365C70.0269 33.4777 69.8997 50.0007 59.6303 60.2702C56.7359 63.1646 53.3448 65.2533 49.7404 66.5342C49.4567 67.2594 49.526 67.5931 50.0984 68.0442C53.9699 66.6919 57.6136 64.4623 60.718 61.3579Z" fill="#F6298F"/>
    </g>
    <defs>
        <clipPath id="clip0_141_102">
            <path d="M0 41.5C0 18.5802 18.5802 0 41.5 0C64.4198 0 83 18.5802 83 41.5C83 64.4198 64.4198 83 41.5 83C18.5802 83 0 64.4198 0 41.5Z" fill="white"/>
        </clipPath>
    </defs>
</svg>
