<svg width="558" height="411" viewBox="0 0 558 411" fill="none" xmlns="http://www.w3.org/2000/svg">
    <path d="M507.606 315.352C500.363 336.577 490.307 357.55 476.579 377.206C476.275 377.649 475.966 378.082 475.655 378.523L434.495 365.919C434.673 365.493 434.868 365.016 435.075 364.496C447.487 333.803 522.147 146.728 513.291 108.114C514.128 111.283 541.515 216.133 507.606 315.352Z" fill="#DCDADB"/>
    <path d="M484.52 379.638C484.026 380.022 483.517 380.403 483.003 380.773L452.125 371.318C452.488 370.972 452.909 370.565 453.394 370.106C461.316 362.466 484.848 339.579 507.606 315.352C532.064 289.316 555.634 261.736 558 249.867C557.563 252.573 543.716 334.923 484.52 379.638Z" fill="#DCDADB"/>
    <path d="M488.33 97.3276H486.078V35.6794C486.078 26.2166 482.317 17.1414 475.622 10.4502C468.927 3.75906 459.847 0 450.379 0H319.697C310.229 0 301.149 3.75906 294.454 10.4502C287.759 17.1414 283.998 26.2166 283.998 35.6794V373.887C283.998 383.35 287.759 392.425 294.454 399.116C301.149 405.807 310.229 409.566 319.697 409.566H450.378C459.846 409.566 468.926 405.807 475.621 399.116C482.316 392.425 486.077 383.35 486.077 373.887V141.21H488.33L488.33 97.3276Z" fill="#585657"/>
    <path d="M451.819 9.28174H434.761C435.546 11.2041 435.845 13.2899 435.634 15.3553C435.422 17.4207 434.705 19.4024 433.546 21.1256C432.388 22.8489 430.823 24.2609 428.989 25.2372C427.156 26.2135 425.11 26.7241 423.033 26.7241H348.167C346.09 26.7239 344.045 26.2132 342.212 25.237C340.379 24.2607 338.814 22.8489 337.655 21.1259C336.497 19.4028 335.78 17.4215 335.568 15.3563C335.356 13.2912 335.656 11.2056 336.44 9.28343H320.505C313.434 9.28343 306.653 12.0908 301.653 17.0878C296.654 22.0849 293.845 28.8624 293.845 35.9293V373.639C293.845 380.706 296.654 387.483 301.653 392.48C306.653 397.478 313.434 400.285 320.505 400.285H451.814C458.885 400.285 465.666 397.478 470.666 392.48C475.666 387.483 478.475 380.706 478.475 373.639V373.639V35.9276C478.475 28.8607 475.666 22.0832 470.666 17.0861C465.666 12.0891 458.885 9.28175 451.814 9.28175L451.819 9.28174Z" fill="white"/>
    <path d="M400.839 357.867C402.134 349.89 396.714 342.375 388.733 341.08C380.752 339.786 373.232 345.203 371.937 353.179C370.642 361.156 376.062 368.672 384.043 369.966C392.024 371.261 399.544 365.844 400.839 357.867Z" fill="#DCDADB"/>
    <path d="M467.099 185.972H305.22V217.915H467.099V185.972Z" fill="#DCDADB"/>
    <path d="M308.671 214.466H463.649V189.423H308.671V214.466Z" fill="white"/>
    <path d="M322.238 192.195C324.126 192.195 325.972 192.754 327.542 193.803C329.112 194.851 330.336 196.341 331.058 198.085C331.781 199.828 331.97 201.747 331.601 203.598C331.233 205.449 330.324 207.149 328.989 208.483C327.653 209.818 325.952 210.727 324.1 211.095C322.248 211.463 320.329 211.274 318.584 210.552C316.84 209.83 315.349 208.607 314.3 207.038C313.251 205.468 312.691 203.624 312.691 201.736C312.691 200.483 312.938 199.243 313.418 198.085C313.897 196.927 314.601 195.875 315.487 194.989C316.374 194.103 317.426 193.401 318.584 192.921C319.743 192.442 320.984 192.195 322.238 192.195Z" fill="#F6298F"/>
    <path d="M439.289 198.002H345.067V200.077H439.289V198.002Z" fill="#DCDADB"/>
    <path d="M439.289 203.395H345.067V205.47H439.289V203.395Z" fill="#DCDADB"/>
    <path d="M467.099 231.556H305.22V263.499H467.099V231.556Z" fill="#DCDADB"/>
    <path d="M308.671 260.05H463.649V235.007H308.671V260.05Z" fill="white"/>
    <path d="M322.238 256.862C327.511 256.862 331.785 252.59 331.785 247.321C331.785 242.051 327.511 237.779 322.238 237.779C316.965 237.779 312.691 242.051 312.691 247.321C312.691 252.59 316.965 256.862 322.238 256.862Z" fill="#F6298F"/>
    <path d="M439.289 243.587H345.067V245.661H439.289V243.587Z" fill="#DCDADB"/>
    <path d="M439.289 248.979H345.067V251.054H439.289V248.979Z" fill="#DCDADB"/>
    <path d="M467.099 277.14H305.22V309.083H467.099V277.14Z" fill="#DCDADB"/>
    <path d="M308.671 305.634H463.649V280.591H308.671V305.634Z" fill="white"/>
    <path d="M322.238 302.446C327.511 302.446 331.785 298.174 331.785 292.904C331.785 287.635 327.511 283.363 322.238 283.363C316.965 283.363 312.691 287.635 312.691 292.904C312.691 298.174 316.965 302.446 322.238 302.446Z" fill="#F6298F"/>
    <path d="M439.289 289.171H345.067V291.245H439.289V289.171Z" fill="#DCDADB"/>
    <path d="M439.289 294.564H345.067V296.638H439.289V294.564Z" fill="#DCDADB"/>
    <path d="M386.16 154.152C411.038 154.152 431.206 133.995 431.206 109.13C431.206 84.2659 411.038 64.1091 386.16 64.1091C361.282 64.1091 341.114 84.2659 341.114 109.13C341.114 133.995 361.282 154.152 386.16 154.152Z" fill="#F6298F"/>
    <path d="M408.12 94.8388V123.422C408.12 123.69 408.067 123.956 407.964 124.203C407.862 124.451 407.711 124.676 407.521 124.866C407.332 125.056 407.106 125.206 406.859 125.308C406.611 125.411 406.345 125.464 406.077 125.464H366.242C365.974 125.464 365.709 125.411 365.461 125.308C365.213 125.206 364.988 125.056 364.798 124.866C364.608 124.676 364.458 124.451 364.355 124.203C364.252 123.956 364.2 123.69 364.2 123.422V94.8388C364.198 94.6052 364.24 94.3734 364.322 94.1548C364.444 93.806 364.66 93.4974 364.945 93.2625C365.231 93.0276 365.575 92.8755 365.941 92.8226C366.041 92.8063 366.142 92.7978 366.242 92.7971H406.077C406.178 92.7978 406.278 92.8063 406.378 92.8226C406.744 92.8754 407.088 93.0275 407.374 93.2624C407.659 93.4973 407.875 93.806 407.997 94.1548C408.079 94.3734 408.121 94.6052 408.12 94.8388Z" fill="white"/>
    <path d="M407.997 94.1548L386.767 109.947C386.593 110.08 386.379 110.151 386.16 110.151C385.94 110.151 385.727 110.08 385.552 109.947L364.323 94.1548C364.445 93.806 364.66 93.4974 364.946 93.2625C365.231 93.0276 365.575 92.8755 365.941 92.8226L386.16 107.859L406.378 92.8226C406.744 92.8754 407.088 93.0275 407.374 93.2624C407.659 93.4973 407.875 93.806 407.997 94.1548Z" fill="#F6298F"/>
    <path d="M123.061 145.815C123.061 159.776 135.978 157.664 151.911 157.664C167.844 157.664 180.761 159.776 180.761 145.815C180.761 131.854 174.451 107.106 151.911 107.106C128.594 107.106 123.061 131.854 123.061 145.815Z" fill="#585657"/>
    <path d="M213.403 400.845L222.626 397.873L215.548 360.905L201.936 365.291L213.403 400.845Z" fill="#FFB8B8"/>
    <path d="M210.08 398.593L228.243 392.742L228.244 392.741C229.764 392.252 231.366 392.066 232.957 392.195C234.549 392.324 236.1 392.765 237.521 393.493C238.943 394.221 240.207 395.222 241.241 396.438C242.275 397.654 243.06 399.062 243.55 400.581L243.671 400.957L213.933 410.538L210.08 398.593Z" fill="#585657"/>
    <path d="M100.192 401.15L109.882 401.149L114.492 363.793L100.19 363.794L100.192 401.15Z" fill="#FFB8B8"/>
    <path d="M97.7202 397.988L116.803 397.987H116.804C118.401 397.987 119.983 398.301 121.458 398.912C122.934 399.523 124.274 400.418 125.404 401.547C126.533 402.676 127.429 404.016 128.04 405.49C128.651 406.965 128.966 408.546 128.966 410.142V410.537L97.7208 410.538L97.7202 397.988Z" fill="#585657"/>
    <path d="M87.6817 257.12C86.9153 256.192 86.3445 255.118 86.0037 253.963C85.6629 252.809 85.5591 251.597 85.6985 250.402C85.8379 249.206 86.2176 248.051 86.8149 247.006C87.4122 245.961 88.2146 245.047 89.1741 244.319C89.5262 244.055 89.8981 243.817 90.2864 243.61L121.895 169.309C122.204 168.416 122.686 167.593 123.315 166.888C123.943 166.182 124.705 165.608 125.557 165.199C126.409 164.789 127.333 164.553 128.277 164.502C129.221 164.452 130.165 164.589 131.056 164.905C131.946 165.222 132.765 165.712 133.465 166.346C134.165 166.981 134.733 167.748 135.134 168.603C135.536 169.458 135.765 170.384 135.806 171.327C135.848 172.271 135.702 173.214 135.377 174.101L102.827 248.026C103.645 250.002 103.726 252.206 103.055 254.237C102.384 256.268 101.007 257.99 99.1726 259.091C97.3385 260.193 95.1698 260.599 93.061 260.238C90.9522 259.876 89.0434 258.77 87.6817 257.12Z" fill="#FFB8B8"/>
    <path d="M204.566 264.575C202.749 263.47 201.389 261.75 200.733 259.728C200.078 257.706 200.171 255.516 200.995 253.556L168.434 179.606C168.114 178.72 167.971 177.779 168.015 176.838C168.059 175.896 168.289 174.973 168.692 174.12C169.094 173.268 169.661 172.504 170.36 171.871C171.059 171.239 171.876 170.75 172.765 170.435C173.653 170.119 174.595 169.982 175.537 170.031C176.479 170.08 177.401 170.315 178.252 170.722C179.102 171.129 179.864 171.7 180.493 172.402C181.122 173.105 181.606 173.924 181.917 174.814L213.535 249.139C213.924 249.347 214.296 249.584 214.648 249.849C215.607 250.577 216.41 251.49 217.007 252.536C217.604 253.581 217.984 254.736 218.123 255.932C218.263 257.127 218.159 258.339 217.818 259.493C217.477 260.648 216.907 261.721 216.14 262.65C215.299 263.667 214.243 264.486 213.048 265.047C211.853 265.608 210.549 265.898 209.228 265.896C207.581 265.899 205.966 265.441 204.566 264.575Z" fill="#FFB8B8"/>
    <path d="M161.319 155.263C170.727 150.123 174.184 138.334 169.041 128.932C163.899 119.529 152.103 116.074 142.696 121.214C133.288 126.354 129.831 138.143 134.973 147.545C140.116 156.948 151.911 160.403 161.319 155.263Z" fill="#FFB8B8"/>
    <path d="M124.666 220.768L120.816 176.067C120.653 174.176 120.916 172.272 121.584 170.495C122.253 168.718 123.311 167.113 124.681 165.798C126.05 164.483 127.697 163.49 129.5 162.894C131.304 162.297 133.217 162.111 135.102 162.349L170.878 166.876C174.154 167.283 177.143 168.949 179.212 171.521C181.281 174.092 182.266 177.368 181.96 180.654C180.54 196.626 176.576 224.667 165.988 233.021L165.826 233.149L124.666 220.768Z" fill="#585657"/>
    <path d="M114.22 378.545L99.378 376.787C98.5027 376.696 97.6929 376.282 97.1061 375.626C96.5193 374.971 96.1975 374.12 96.2034 373.241C96.236 366.103 96.2177 358.792 96.2001 351.722C96.0485 291.148 95.9053 233.934 124.451 218.146L124.605 218.061L166.122 232.424L167.712 260.224L201.416 307.947C204.203 311.89 206.302 316.276 207.623 320.92L220.145 364.886C220.277 365.35 220.314 365.835 220.252 366.313C220.191 366.791 220.033 367.252 219.787 367.667C219.542 368.082 219.215 368.443 218.826 368.727C218.437 369.012 217.994 369.215 217.524 369.323L202.927 372.69C202.086 372.883 201.203 372.765 200.443 372.356C199.682 371.947 199.097 371.276 198.794 370.468L179.235 321.798L139.491 278.996C139.341 278.841 139.151 278.729 138.942 278.674C138.733 278.618 138.513 278.621 138.306 278.681C138.098 278.742 137.911 278.858 137.765 279.017C137.619 279.176 137.519 279.372 137.476 279.584L118.09 375.714C117.917 376.585 117.423 377.358 116.706 377.882C115.99 378.407 115.103 378.643 114.22 378.545Z" fill="#585657"/>
    <path d="M174.437 136.335H166.759L163.372 126.855L162.694 136.335H159.024L157.048 130.805L156.653 136.335H129.384C129.384 133.638 129.916 130.967 130.949 128.475C131.981 125.983 133.495 123.719 135.403 121.812C137.312 119.904 139.577 118.392 142.07 117.359C144.564 116.327 147.236 115.796 149.935 115.796H153.887C156.585 115.796 159.258 116.327 161.751 117.359C164.244 118.392 166.51 119.904 168.418 121.812C170.326 123.719 171.84 125.983 172.873 128.475C173.906 130.967 174.437 133.638 174.437 136.335Z" fill="#585657"/>
</svg>
