<svg width="72" height="72" viewBox="0 0 72 72" fill="none" xmlns="http://www.w3.org/2000/svg">
    <path d="M67.5 31.4999C67.158 31.3025 66.77 31.1985 66.375 31.1985C65.98 31.1985 65.592 31.3025 65.25 31.4999L36 48.0374L6.75 31.4999C6.4073 31.3021 6.01848 31.1981 5.62276 31.1985C5.22704 31.1989 4.83843 31.3036 4.49612 31.5022C4.15381 31.7007 3.86992 31.986 3.67308 32.3293C3.47624 32.6726 3.37343 33.0617 3.375 33.4574V52.8749C3.375 54.6652 4.08616 56.382 5.35203 57.6479C6.6179 58.9138 8.33479 59.6249 10.125 59.6249H61.875C63.6652 59.6249 65.3821 58.9138 66.648 57.6479C67.9138 56.382 68.625 54.6652 68.625 52.8749V33.4687C68.6286 33.0703 68.5263 32.6781 68.3286 32.3322C68.131 31.9863 67.845 31.6991 67.5 31.4999Z" fill="#F6298F"/>
    <path d="M61.875 12.375H10.125C8.33479 12.375 6.6179 13.0862 5.35203 14.352C4.08616 15.6179 3.375 17.3348 3.375 19.125V23.3437C3.37343 23.7402 3.47665 24.1301 3.6742 24.4738C3.87176 24.8176 4.15664 25.103 4.5 25.3012L34.875 42.4575C35.217 42.655 35.605 42.7589 36 42.7589C36.395 42.7589 36.783 42.655 37.125 42.4575L67.5 25.3012C67.8434 25.103 68.1282 24.8176 68.3258 24.4738C68.5234 24.1301 68.6266 23.7402 68.625 23.3437V19.125C68.625 17.3348 67.9138 15.6179 66.648 14.352C65.3821 13.0862 63.6652 12.375 61.875 12.375Z" fill="#F6298F"/>
</svg>
