<svg width="72" height="74" viewBox="0 0 72 74" fill="none" xmlns="http://www.w3.org/2000/svg">
    <path d="M71.962 37.6923C71.962 34.6606 71.717 32.4482 71.1869 30.1539H36.7171V43.8377H56.9501C56.5423 47.2383 54.3395 52.3596 49.4443 55.8009L49.3757 56.259L60.2744 64.7388L61.0295 64.8145C67.9641 58.3821 71.962 48.918 71.962 37.6923Z" fill="#4285F4"/>
    <path d="M36.7171 73.7458C46.6296 73.7458 54.9512 70.468 61.0295 64.8144L49.4444 55.8008C46.3442 57.9722 42.1832 59.4881 36.7171 59.4881C27.0085 59.4881 18.7685 53.056 15.8311 44.1655L15.4006 44.2022L4.06793 53.0108L3.91972 53.4246C9.95698 65.4696 22.358 73.7458 36.7171 73.7458Z" fill="#34A853"/>
    <path d="M15.8311 44.1656C15.0561 41.8713 14.6075 39.413 14.6075 36.873C14.6075 34.3327 15.0561 31.8746 15.7903 29.5803L15.7698 29.0917L4.29516 20.1416L3.91973 20.321C1.43148 25.3193 0.00372314 30.9323 0.00372314 36.873C0.00372314 42.8136 1.43148 48.4263 3.91973 53.4247L15.8311 44.1656Z" fill="#FBBC05"/>
    <path d="M36.7171 14.2574C43.611 14.2574 48.2612 17.2482 50.9129 19.7475L61.2742 9.58695C54.9107 3.64634 46.6296 0 36.7171 0C22.358 0 9.95697 8.27585 3.91972 20.3209L15.7903 29.5802C18.7685 20.6898 27.0085 14.2574 36.7171 14.2574Z" fill="#EB4335"/>
</svg>
